<?xml version="1.0" encoding="UTF-8"?><svg xmlns="http://www.w3.org/2000/svg" viewBox="0 0 204.35 316.78"><defs><style>.cls-1{fill:#424142;}.cls-2,.cls-3,.cls-5{fill:none;stroke-miterlimit:10;}.cls-2,.cls-3{stroke:#6d6e71;}.cls-2{stroke-width:2.24px;}.cls-3{stroke-linecap:round;}.cls-3,.cls-5{stroke-width:2px;}.cls-4{fill:#6d6e71;}.cls-5{stroke:#4d8fcc;}.cls-6{fill:#4d8fcc;}.cls-7{fill:#ef3c49;}</style></defs><title>Asset 33</title><g id="Layer_2" data-name="Layer 2"><g id="Layer_1-2" data-name="Layer 1"><path class="cls-1" d="M29.33,292.45H27.51l-.7-2.34-3.86,0-.66,2.34H20.54L23.85,282h2.06Zm-6-3.71h3.11l-1.57-5.34Z" transform="translate(0 -2.76)"/><path class="cls-1" d="M38,284.73v.36c0,2-1.22,3.19-3.83,3.21a10.86,10.86,0,0,1-1.48-.11l0,4.24H31l0-10.58c.87-.05,1.84-.09,3-.11C36.71,281.72,38,282.85,38,284.73Zm-5.33-1.55v3.62a9.21,9.21,0,0,0,1.38.1c1.5,0,2.25-.63,2.24-1.86v-.26c0-1.07-.69-1.66-2.34-1.65A12.82,12.82,0,0,0,32.63,283.18Z" transform="translate(0 -2.76)"/><path class="cls-1" d="M46.92,284.69v.36c0,2-1.22,3.19-3.83,3.21a10.75,10.75,0,0,1-1.48-.11l0,4.24H39.92l0-10.58c.87-.05,1.84-.09,3-.11C45.67,281.68,46.91,282.81,46.92,284.69Zm-5.33-1.55v3.62a9.21,9.21,0,0,0,1.38.1c1.5,0,2.25-.63,2.24-1.86v-.26c0-1.07-.69-1.66-2.34-1.65A12.82,12.82,0,0,0,41.59,283.14Z" transform="translate(0 -2.76)"/><path class="cls-1" d="M18,13.41H15.84L12.57,3h1.81l2.53,9,2.54-9h1.81Z" transform="translate(0 -2.76)"/><path class="cls-1" d="M30,13.35H28.14L27.44,11H23.58l-.65,2.34H21.17l3.31-10.5h2.06Zm-6-3.7h3.11L25.49,4.3Z" transform="translate(0 -2.76)"/><path class="cls-1" d="M38.55,10c0,2.26-1.2,3.54-3.68,3.55s-3.69-1.2-3.7-3.48l0-7.18h1.7l0,7.33a1.75,1.75,0,0,0,2,1.91,1.76,1.76,0,0,0,2-1.93l0-7.33h1.7Z" transform="translate(0 -2.76)"/><path class="cls-1" d="M42.87,11.86l4.32,0v1.44l-6,0L41.12,2.82h1.71Z" transform="translate(0 -2.76)"/><path class="cls-1" d="M54.86,4.21l-3.15,0,0,9H50l0-9H46.83V2.79l8,0Z" transform="translate(0 -2.76)"/><path class="cls-1" d="M152.48,292.53h-3.15l0,9h-1.7l0-9h-3.16V291.1l8,0Z" transform="translate(0 -2.76)"/><path class="cls-1" d="M161.17,301.51h-1.82l-.69-2.33-3.87,0-.65,2.33h-1.76l3.31-10.5h2.06Zm-6-3.7h3.12l-1.58-5.34Z" transform="translate(0 -2.76)"/><path class="cls-1" d="M169.77,293.67v.38a2.74,2.74,0,0,1-2,2.65l2.85,4.77h-1.89l-2.61-4.39a13.25,13.25,0,0,1-1.64,0l0,4.43h-1.7l-.05-10.6c1,0,2.13-.09,3-.09C168.6,290.8,169.77,291.92,169.77,293.67Zm-5.3-1.42,0,3.46c.63,0,.93.05,1.34.05,1.58,0,2.25-.66,2.24-1.72v-.29c0-1-.67-1.56-2.29-1.56C165.46,292.2,164.88,292.21,164.47,292.25Z" transform="translate(0 -2.76)"/><path class="cls-1" d="M178.69,291.1l0,1.42a19.06,19.06,0,0,0-3-.34c-1.46,0-2,.52-2,1.77l0,4.48c0,1.27.56,1.79,2,1.79a14.67,14.67,0,0,0,1.86-.2l0-3.24h-2v-1.47l3.62,0,0,5.72a13.2,13.2,0,0,1-3.52.62c-2.71,0-3.67-1.09-3.68-3.26l0-4.31c0-2.27,1-3.28,3.67-3.3A18,18,0,0,1,178.69,291.1Z" transform="translate(0 -2.76)"/><path class="cls-1" d="M187.74,292.37l-4.33,0,0,3,4,0v1.44h-4l0,3.16,4.32,0v1.46l-6,0-.05-10.48,6,0Z" transform="translate(0 -2.76)"/><path class="cls-1" d="M197.5,292.32l-3.15,0,0,9h-1.7l0-9h-3.17V290.9l8,0Z" transform="translate(0 -2.76)"/><path class="cls-1" d="M149.54,308.91l0,1.44a16.26,16.26,0,0,0-2.44-.26c-1.23,0-1.68.47-1.68,1.34v.38c0,.69.23.94,1.25,1.24l1.55.48a2.52,2.52,0,0,1,2.14,2.79v.3c0,1.88-1,2.91-3.81,2.92a13.68,13.68,0,0,1-2.53-.33l0-1.45a13.14,13.14,0,0,0,2.47.32c1.62,0,2.15-.49,2.14-1.35v-.48c0-.68-.28-1-1.06-1.23l-1.72-.52c-1.61-.49-2.15-1.16-2.16-2.76v-.18c0-1.85,1-2.88,3.36-2.89A16.21,16.21,0,0,1,149.54,308.91Z" transform="translate(0 -2.76)"/><path class="cls-1" d="M158.36,310.27l-4.33,0v3l4,0v1.44l-4,0,0,3.16,4.32,0v1.45l-6,0-.05-10.48,6,0Z" transform="translate(0 -2.76)"/><path class="cls-1" d="M167.8,311.44v.38a2.7,2.7,0,0,1-2,2.65l2.85,4.78h-1.89l-2.61-4.39a11.64,11.64,0,0,1-1.63,0l0,4.43h-1.71l0-10.59c1,0,2.13-.09,3-.1C166.63,308.58,167.79,309.7,167.8,311.44ZM162.5,310v3.46c.63,0,.94.06,1.35.06,1.58,0,2.24-.67,2.24-1.72v-.29c0-1-.68-1.57-2.29-1.56C163.48,310,162.91,310,162.5,310Z" transform="translate(0 -2.76)"/><path class="cls-1" d="M174.56,319.22h-2.14l-3.27-10.47H171l2.52,9,2.55-9h1.81Z" transform="translate(0 -2.76)"/><path class="cls-1" d="M181.24,319.19h-1.7l0-10.49h1.7Z" transform="translate(0 -2.76)"/><path class="cls-1" d="M189.85,308.75l0,1.41a15.27,15.27,0,0,0-2.32-.25c-1.51,0-2.07.52-2.07,1.87l0,4.29c0,1.34.57,1.84,2.09,1.83a14.75,14.75,0,0,0,2.31-.28l0,1.45a17.39,17.39,0,0,1-2.45.29c-2.72,0-3.68-1.09-3.69-3.27l0-4.3c0-2.21,1-3.29,3.66-3.3A14.72,14.72,0,0,1,189.85,308.75Z" transform="translate(0 -2.76)"/><path class="cls-1" d="M198.16,310.09l-4.32,0v3h4v1.44l-4,0v3.15l4.33,0v1.46l-6,0-.05-10.48,6,0Z" transform="translate(0 -2.76)"/><rect class="cls-2" x="4.6" y="224" width="58.89" height="44.75" rx="2.75"/><line class="cls-2" x1="5.41" y1="232.49" x2="63.01" y2="232.49"/><circle class="cls-2" cx="58.12" cy="227.87" r="0.65"/><circle class="cls-2" cx="53.5" cy="227.87" r="0.65"/><circle class="cls-2" cx="48.87" cy="227.87" r="0.65"/><line class="cls-2" x1="10.77" y1="244.18" x2="57.32" y2="244.18"/><rect class="cls-2" x="10.77" y="238.43" width="46.55" height="24.38"/><rect class="cls-2" x="178.51" y="257.74" width="14.83" height="11.54" rx="1.71"/><path class="cls-2" d="M180.16,260.5v-2a6,6,0,0,1,5.77-6.21h0a6,6,0,0,1,5.77,6.21v2" transform="translate(0 -2.76)"/><circle class="cls-2" cx="185.93" cy="262.69" r="0.82"/><line class="cls-2" x1="185.93" y1="263.51" x2="185.93" y2="265.98"/><ellipse class="cls-2" cx="170.79" cy="223.67" rx="25.95" ry="8.65"/><path class="cls-2" d="M174.1,250.14c-1.08.05-2.19.07-3.31.07-14.33,0-25.94-3.87-25.94-8.65" transform="translate(0 -2.76)"/><path class="cls-2" d="M168.77,265.32c-13.39-.34-23.92-4.07-23.92-8.62" transform="translate(0 -2.76)"/><path class="cls-2" d="M180.68,279.8a82.61,82.61,0,0,1-9.89.68c-14.33,0-25.94-3.87-25.94-8.65" transform="translate(0 -2.76)"/><line class="cls-2" x1="144.85" y1="269.07" x2="144.85" y2="223.67"/><line class="cls-2" x1="196.74" y1="246.64" x2="196.74" y2="223.67"/><circle class="cls-2" cx="185.93" cy="260.43" r="17.3"/><path class="cls-2" d="M17,158.22,13.86,155,13,157.11a2.76,2.76,0,0,1-2.25,1,2.91,2.91,0,0,1-2.08-1.37,3.42,3.42,0,0,0-.27-.32l-.22-.25-4.33-6.64L7.08,144l28.79-.25c2.21-5.81,6.58-8.73,13-8.7a15.43,15.43,0,0,1,11.25,5.05,16.18,16.18,0,0,1,4.08,12.24,15.69,15.69,0,0,1-15.43,14.37h-.19a14.83,14.83,0,0,1-13.06-8.24H32.14l-3.88-4-3.81,3.84-3.77-3.87L17,158.22" transform="translate(0 -2.76)"/><path class="cls-3" d="M54.28,154.52h0a3.69,3.69,0,0,1-2.63-1.13,3.85,3.85,0,0,1,0-5.35h0a3.63,3.63,0,0,1,2.61-1.1h0a3.63,3.63,0,0,1,2.62,1.13,3.85,3.85,0,0,1,0,5.35A3.65,3.65,0,0,1,54.28,154.52Z" transform="translate(0 -2.76)"/><line class="cls-3" x1="9.48" y1="146.44" x2="35.05" y2="146.44"/><rect class="cls-2" x="4.6" y="20.67" width="58.89" height="53.48" rx="4.36"/><rect class="cls-2" x="10.38" y="26.45" width="47.33" height="41.91" rx="4.36"/><path class="cls-4" d="M28.16,57.7l.79-.8a8.45,8.45,0,0,0,10.19,0l.8.8a1.16,1.16,0,0,0,1.64-1.64l-.8-.8a8.45,8.45,0,0,0,0-10.19l.8-.79a1.16,1.16,0,0,0-1.64-1.64l-.8.79a8.45,8.45,0,0,0-10.19,0l-.79-.79a1.16,1.16,0,0,0-1.64,1.64l.79.79a8.45,8.45,0,0,0,0,10.19l-.79.8a1.16,1.16,0,0,0,1.64,1.64ZM39.4,53.88l-3-3a2.39,2.39,0,0,0,0-1.35l3-3A6.52,6.52,0,0,1,39.4,53.88Zm-1.64-9.07-3,3a2.39,2.39,0,0,0-1.35,0l-3-3A6.52,6.52,0,0,1,37.76,44.81Zm-9.07,1.64,3,3a2.39,2.39,0,0,0,0,1.35l-3,3A6.52,6.52,0,0,1,28.69,46.45Zm4.68,6a2.39,2.39,0,0,0,1.35,0l3,3a6.52,6.52,0,0,1-7.43,0Z" transform="translate(0 -2.76)"/><path class="cls-2" d="M2.35,30.82H4.6a0,0,0,0,1,0,0v10a0,0,0,0,1,0,0H2.35a1.23,1.23,0,0,1-1.23-1.23V32A1.23,1.23,0,0,1,2.35,30.82Z"/><path class="cls-2" d="M2.35,54H4.6a0,0,0,0,1,0,0V64a0,0,0,0,1,0,0H2.35a1.23,1.23,0,0,1-1.23-1.23V55.26A1.23,1.23,0,0,1,2.35,54Z"/><line class="cls-5" x1="125.83" y1="246.37" x2="74.53" y2="246.37"/><polygon class="cls-6" points="133.81 246.33 125.69 252.94 125.64 239.8 133.81 246.33"/><line class="cls-5" x1="34.05" y1="208.36" x2="34.05" y2="167.56"/><polygon class="cls-6" points="34.08 216.35 27.48 208.23 40.62 208.17 34.08 216.35"/><line class="cls-5" x1="34.05" y1="128.6" x2="34.05" y2="81.8"/><path class="cls-7" d="M92.8,139v2.72c0,2.76-1.46,4.34-4.38,4.34-1.11,0-2,0-3.06-.1V134.61c.81,0,1.9-.08,3.18-.08C91.27,134.53,92.8,136.12,92.8,139Zm-5.74-3v8.46a13.62,13.62,0,0,0,1.39.09,2.45,2.45,0,0,0,2.63-2.74v-2.94c0-1.95-1-2.91-2.63-2.91C88,136,87.52,136,87.06,136Z" transform="translate(0 -2.76)"/><path class="cls-7" d="M100.91,140.44v1.82H96.68v.85c0,1,.46,1.46,1.6,1.46a13.2,13.2,0,0,0,2.24-.27l0,1.46a13.32,13.32,0,0,1-2.36.31c-2.31,0-3.19-1-3.19-3.11v-2.52c0-2,1-3.07,2.94-3.07S100.91,138.44,100.91,140.44Zm-4.25-.24V141h2.57v-.72c0-1-.51-1.46-1.29-1.46A1.24,1.24,0,0,0,96.66,140.2Z" transform="translate(0 -2.76)"/><path class="cls-7" d="M106.72,145.86h-2.1l-2.52-8.29h1.79l1.78,7.05,1.82-7.05h1.77Z" transform="translate(0 -2.76)"/><path class="cls-7" d="M116.5,140.44v1.82h-4.23v.85c0,1,.46,1.46,1.6,1.46a13.2,13.2,0,0,0,2.24-.27l0,1.46a13.32,13.32,0,0,1-2.36.31c-2.31,0-3.2-1-3.2-3.11v-2.52c0-2,1-3.07,3-3.07S116.5,138.44,116.5,140.44Zm-4.25-.24V141h2.57v-.72c0-1-.51-1.46-1.29-1.46A1.24,1.24,0,0,0,112.25,140.2Z" transform="translate(0 -2.76)"/><path class="cls-7" d="M120.27,145.86h-1.68V134.25h1.68Z" transform="translate(0 -2.76)"/><path class="cls-7" d="M128.65,140.48V143c0,1.95-1,3.11-3,3.11s-3-1.16-3-3.11v-2.48c0-2,1-3.11,3-3.11S128.65,138.52,128.65,140.48Zm-4.42-.11v2.69c0,1,.52,1.58,1.36,1.58s1.36-.54,1.36-1.58v-2.7c0-1-.51-1.57-1.36-1.57S124.23,139.34,124.23,140.37Z" transform="translate(0 -2.76)"/><path class="cls-7" d="M136.92,140.25v2.93c0,1.85-1,2.89-2.5,2.89a4,4,0,0,1-1.79-.58V149H131V137.57h1.56v1.15a2.66,2.66,0,0,1,2.18-1.35C136.07,137.37,136.92,138.3,136.92,140.25Zm-4.3-.17V144a2.47,2.47,0,0,0,1.39.54c.82,0,1.21-.51,1.21-1.58v-2.55c0-1.14-.39-1.56-1-1.56A2.1,2.1,0,0,0,132.62,140.08Z" transform="translate(0 -2.76)"/><path class="cls-7" d="M145,140.44v1.82h-4.24v.85c0,1,.46,1.46,1.6,1.46a13.2,13.2,0,0,0,2.25-.27l0,1.46a13.44,13.44,0,0,1-2.36.31c-2.31,0-3.2-1-3.2-3.11v-2.52c0-2,1-3.07,2.94-3.07S145,138.44,145,140.44Zm-4.25-.24V141h2.56v-.72c0-1-.51-1.46-1.29-1.46A1.24,1.24,0,0,0,140.71,140.2Z" transform="translate(0 -2.76)"/><path class="cls-7" d="M151.21,137.4v1.85a3.4,3.4,0,0,0-.63-.05,2.1,2.1,0,0,0-1.85,1.16v5.5h-1.68v-8.29h1.56v1.24a2.76,2.76,0,0,1,2.23-1.44A1.77,1.77,0,0,1,151.21,137.4Z" transform="translate(0 -2.76)"/><path class="cls-7" d="M92.79,165.46H91.08v-5h-4v5h-1.7V154.33h1.7V159h4v-4.62h1.71Z" transform="translate(0 -2.76)"/><path class="cls-7" d="M100.78,159.8v5.66H99.19v-1.24a2.69,2.69,0,0,1-2.14,1.45c-1.29,0-2.14-.94-2.14-2.57v-.46a2.35,2.35,0,0,1,2.59-2.39,11.22,11.22,0,0,1,1.59.18v-.8c0-.88-.39-1.2-1.27-1.2a14.81,14.81,0,0,0-2.26.27v-1.46A16.17,16.17,0,0,1,97.9,157C99.93,157,100.78,157.76,100.78,159.8Zm-4.19,3V163c0,.79.38,1.2.89,1.2s1.12-.46,1.61-1.33v-1.22a8.08,8.08,0,0,0-1.2-.11A1.17,1.17,0,0,0,96.59,162.79Z" transform="translate(0 -2.76)"/><path class="cls-7" d="M109.16,159.82v5.64h-1.69V160c0-1.08-.37-1.49-1-1.49a2.14,2.14,0,0,0-1.66,1.22v5.71h-1.69v-8.29h1.57v1.21A2.67,2.67,0,0,1,107,157C108.36,157,109.16,158,109.16,159.82Z" transform="translate(0 -2.76)"/><path class="cls-7" d="M117.43,165.46h-1.58v-1.27a2.79,2.79,0,0,1-2.24,1.48c-1.38,0-2.16-.94-2.16-2.84v-3c0-1.82.83-2.88,2.36-2.88a3.56,3.56,0,0,1,1.94.8v-3.91h1.68Zm-4.3-5.42v2.58c0,1.14.38,1.54.92,1.54s1.21-.48,1.7-1.37v-3.56a2.3,2.3,0,0,0-1.49-.75C113.56,158.48,113.13,158.94,113.13,160Z" transform="translate(0 -2.76)"/><path class="cls-7" d="M121.58,165.46H119.9V153.85h1.68Z" transform="translate(0 -2.76)"/><path class="cls-7" d="M129.79,160v1.82h-4.23v.85c0,1,.46,1.46,1.6,1.46a13.2,13.2,0,0,0,2.24-.27l0,1.46a14.43,14.43,0,0,1-2.37.31c-2.31,0-3.19-1-3.19-3.11V160c0-2,1-3.08,2.94-3.08S129.79,158,129.79,160Zm-4.25-.24v.77h2.57v-.72c0-1-.51-1.46-1.29-1.46A1.24,1.24,0,0,0,125.54,159.8Z" transform="translate(0 -2.76)"/><path class="cls-7" d="M136.15,157.17l0,1.46a7.45,7.45,0,0,0-1.67-.22c-1,0-1.37.32-1.37.85v.12c0,.37.17.54.64.76l1.58.73a2.19,2.19,0,0,1,1.46,2v.36c0,1.56-.85,2.4-2.94,2.4a9.38,9.38,0,0,1-2.24-.36l.07-1.51a8.5,8.5,0,0,0,2.16.37c1,0,1.29-.25,1.29-.85v-.13a.87.87,0,0,0-.61-.92l-1.58-.68a2.13,2.13,0,0,1-1.5-2v-.24c0-1.56.88-2.4,2.94-2.4A8.58,8.58,0,0,1,136.15,157.17Z" transform="translate(0 -2.76)"/><path class="cls-7" d="M147.49,154.4l0,1.53a14.25,14.25,0,0,0-2.43-.29c-1.23,0-1.69.49-1.69,1.41v.41c0,.73.22,1,1.24,1.32l1.55.51a2.65,2.65,0,0,1,2.12,3v.32c0,2-1,3.08-3.8,3.08a13.49,13.49,0,0,1-2.54-.36l0-1.55a11.36,11.36,0,0,0,2.46.36c1.62,0,2.15-.51,2.15-1.43v-.51c0-.71-.28-1.05-1.06-1.31l-1.72-.56a2.6,2.6,0,0,1-2.14-2.94v-.18c0-2,1-3.06,3.37-3.06A16.77,16.77,0,0,1,147.49,154.4Z" transform="translate(0 -2.76)"/><path class="cls-7" d="M155.94,160v1.82h-4.23v.85c0,1,.46,1.46,1.59,1.46a13.2,13.2,0,0,0,2.25-.27l0,1.46a14.32,14.32,0,0,1-2.36.31c-2.31,0-3.2-1-3.2-3.11V160c0-2,1-3.08,2.94-3.08S155.94,158,155.94,160Zm-4.25-.24v.77h2.57v-.72c0-1-.51-1.46-1.3-1.46A1.24,1.24,0,0,0,151.69,159.8Z" transform="translate(0 -2.76)"/><path class="cls-7" d="M162.79,157.19l0,1.49a8.08,8.08,0,0,0-1.67-.22c-1.05,0-1.55.54-1.55,1.6v2.5a1.4,1.4,0,0,0,1.55,1.61,7,7,0,0,0,1.67-.22l0,1.5a9,9,0,0,1-1.82.22c-2.09,0-3.11-1.07-3.11-3.13v-2.45A2.78,2.78,0,0,1,161,157,8.08,8.08,0,0,1,162.79,157.19Z" transform="translate(0 -2.76)"/><path class="cls-7" d="M169.08,157v1.85a3.48,3.48,0,0,0-.63,0A2.09,2.09,0,0,0,166.6,160v5.5h-1.68v-8.29h1.56v1.24a2.76,2.76,0,0,1,2.23-1.45A1.66,1.66,0,0,1,169.08,157Z" transform="translate(0 -2.76)"/><path class="cls-7" d="M176.42,160v1.82h-4.23v.85c0,1,.46,1.46,1.6,1.46a13.2,13.2,0,0,0,2.24-.27l0,1.46a14.43,14.43,0,0,1-2.37.31c-2.31,0-3.19-1-3.19-3.11V160c0-2,1-3.08,2.94-3.08S176.42,158,176.42,160Zm-4.25-.24v.77h2.57v-.72c0-1-.51-1.46-1.29-1.46A1.24,1.24,0,0,0,172.17,159.8Z" transform="translate(0 -2.76)"/><path class="cls-7" d="M180.5,157.17h2.15v1.41H180.5v4.49c0,.81.33,1.14,1,1.14a7,7,0,0,0,1.39-.17l0,1.42a6.3,6.3,0,0,1-1.46.21c-1.83,0-2.65-.75-2.65-2.71v-4.38h-1.14v-1.41h1.16l.27-2.21h1.39Z" transform="translate(0 -2.76)"/><path class="cls-7" d="M188.9,157.17l0,1.46a7.45,7.45,0,0,0-1.67-.22c-1,0-1.38.32-1.38.85v.12c0,.37.17.54.65.76l1.58.73a2.19,2.19,0,0,1,1.46,2v.36c0,1.56-.85,2.4-2.94,2.4a9.38,9.38,0,0,1-2.24-.36l.07-1.51a8.43,8.43,0,0,0,2.16.37c1,0,1.29-.25,1.29-.85v-.13a.88.88,0,0,0-.61-.92l-1.59-.68a2.13,2.13,0,0,1-1.49-2v-.24c0-1.56.88-2.4,2.94-2.4A8.58,8.58,0,0,1,188.9,157.17Z" transform="translate(0 -2.76)"/></g></g></svg>