<?xml version="1.0" encoding="UTF-8"?><svg xmlns="http://www.w3.org/2000/svg" viewBox="0 0 329.83 317.58"><defs><style>.cls-1{fill:#424142;}.cls-2,.cls-4,.cls-5,.cls-6{fill:none;stroke-miterlimit:10;}.cls-2,.cls-4,.cls-6{stroke:#6d6e71;}.cls-2{stroke-width:2.24px;}.cls-3{fill:#4d8fcc;}.cls-4,.cls-6{stroke-linecap:round;}.cls-5{stroke:#4d8fcc;}.cls-5,.cls-6{stroke-width:2px;}.cls-7{fill:#6d6e71;}</style></defs><title>Asset 34</title><g id="Layer_2" data-name="Layer 2"><g id="Layer_1-2" data-name="Layer 1"><path class="cls-1" d="M121.93,278.79l0,1.44a16.26,16.26,0,0,0-2.44-.26c-1.22,0-1.68.47-1.68,1.34v.38c0,.69.23.94,1.25,1.24l1.55.48a2.52,2.52,0,0,1,2.15,2.79v.3c0,1.88-1,2.9-3.81,2.92a14.72,14.72,0,0,1-2.53-.33l0-1.46a12.47,12.47,0,0,0,2.47.33c1.62,0,2.15-.49,2.14-1.35v-.49c0-.67-.28-1-1.06-1.22l-1.72-.52c-1.61-.49-2.15-1.16-2.16-2.76v-.18c0-1.86,1-2.88,3.36-2.9A18,18,0,0,1,121.93,278.79Z" transform="translate(0 -2.76)"/><path class="cls-1" d="M130.74,280.14l-4.33,0,0,3,4,0v1.44l-4,0,0,3.15,4.32,0v1.46l-6,0,0-10.49,6,0Z" transform="translate(0 -2.76)"/><path class="cls-1" d="M139.1,278.73l0,1.41a15.27,15.27,0,0,0-2.32-.25c-1.52,0-2.07.52-2.07,1.87l0,4.29c0,1.34.57,1.84,2.09,1.83a13.65,13.65,0,0,0,2.31-.28l0,1.45a16,16,0,0,1-2.45.29c-2.72,0-3.68-1.09-3.69-3.27l0-4.3c0-2.21,1-3.29,3.66-3.3A14.72,14.72,0,0,1,139.1,278.73Z" transform="translate(0 -2.76)"/><path class="cls-1" d="M148.39,281.28v.39a2.72,2.72,0,0,1-2,2.65l2.84,4.77h-1.89l-2.61-4.39a11.65,11.65,0,0,1-1.63,0l0,4.44h-1.7l-.05-10.59c1,0,2.13-.09,3-.1C147.22,278.42,148.38,279.54,148.39,281.28Zm-5.3-1.42v3.46c.63.05.94.06,1.35.06,1.58,0,2.24-.67,2.24-1.72v-.29c0-1-.67-1.57-2.29-1.56C144.07,279.81,143.5,279.83,143.09,279.86Z" transform="translate(0 -2.76)"/><path class="cls-1" d="M156.87,280l-4.33,0,0,3h4v1.44h-4l0,3.16,4.32,0v1.45l-6,0,0-10.48,6,0Z" transform="translate(0 -2.76)"/><path class="cls-1" d="M166.63,280l-3.15,0,0,9h-1.7l0-9h-3.16v-1.46l8,0Z" transform="translate(0 -2.76)"/><path class="cls-1" d="M170.31,287.55h4.32V289l-6,0,0-10.48h1.7Z" transform="translate(0 -2.76)"/><path class="cls-1" d="M182.54,279.91l-4.33,0,0,3,4,0v1.44l-4,0,0,3.15,4.32,0v1.46l-6,0-.05-10.49,6,0Z" transform="translate(0 -2.76)"/><path class="cls-1" d="M190.37,278.49l0,1.44a15,15,0,0,0-2.44-.26c-1.22,0-1.68.47-1.68,1.33v.38c0,.69.23.95,1.25,1.25l1.56.47a2.53,2.53,0,0,1,2.14,2.79v.31c0,1.87-1,2.9-3.8,2.91a14.63,14.63,0,0,1-2.54-.32l0-1.46a12.44,12.44,0,0,0,2.48.32c1.61,0,2.14-.48,2.14-1.35v-.48c0-.67-.27-1-1.06-1.23l-1.72-.52c-1.6-.49-2.15-1.16-2.16-2.76v-.17c0-1.86,1-2.89,3.36-2.9A18,18,0,0,1,190.37,278.49Z" transform="translate(0 -2.76)"/><path class="cls-1" d="M198.2,278.45l0,1.44a16.39,16.39,0,0,0-2.44-.26c-1.23,0-1.69.47-1.68,1.34v.38c0,.69.23.94,1.25,1.24l1.55.48a2.51,2.51,0,0,1,2.14,2.79v.3c0,1.88-1,2.9-3.8,2.92a13.87,13.87,0,0,1-2.54-.33l0-1.46a12.47,12.47,0,0,0,2.47.33c1.62,0,2.15-.49,2.14-1.35v-.48c0-.68-.28-1-1.06-1.23l-1.72-.52c-1.61-.49-2.16-1.16-2.16-2.76v-.18c0-1.85,1-2.88,3.36-2.89A16.33,16.33,0,0,1,198.2,278.45Z" transform="translate(0 -2.76)"/><path class="cls-1" d="M137.82,298.81v.32a2.35,2.35,0,0,1-1.6,2.33,2.35,2.35,0,0,1,2.07,2.37v.34c0,1.69-1.21,2.93-4.06,2.94-1,0-1.55,0-3.17-.08l0-10.69c.81,0,2-.09,3.06-.09C136.57,296.24,137.82,297.3,137.82,298.81Zm-5.09-1.13v3.26h1.48c1.26,0,1.89-.6,1.89-1.61v-.26c0-.93-.62-1.45-2.2-1.45C133.53,297.62,133.15,297.64,132.73,297.68Zm0,4.59v3.36a11.08,11.08,0,0,0,1.48.08c1.67,0,2.35-.66,2.35-1.63v-.32c0-1-.68-1.5-2.25-1.5Z" transform="translate(0 -2.76)"/><path class="cls-1" d="M147.24,299.05v.39a2.71,2.71,0,0,1-2,2.65l2.84,4.77H146.2l-2.6-4.39a11.78,11.78,0,0,1-1.64,0l0,4.44h-1.7l-.05-10.59c1,0,2.13-.09,3-.09C146.07,296.19,147.24,297.31,147.24,299.05Zm-5.3-1.41,0,3.45c.63.05.93.06,1.34.06,1.58,0,2.25-.66,2.24-1.72v-.29c0-1-.67-1.56-2.29-1.56C142.93,297.58,142.35,297.6,141.94,297.64Z" transform="translate(0 -2.76)"/><path class="cls-1" d="M157,299.63v3.89c0,2.16-1.09,3.5-3.76,3.51s-3.77-1.31-3.78-3.47l0-3.89c0-2.18,1.09-3.5,3.75-3.51S157,297.46,157,299.63Zm-5.85-.13,0,4.19c0,1.25.71,1.92,2.07,1.92s2.06-.69,2.05-1.93V299.5c0-1.23-.69-1.92-2.07-1.91S151.16,298.27,151.16,299.5Z" transform="translate(0 -2.76)"/><path class="cls-1" d="M162.84,301.4l4.61,5.37h-2.12l-4.09-4.89,0,4.91h-1.7l0-10.48h1.7l0,4.91,3.9-4.93H167Z" transform="translate(0 -2.76)"/><path class="cls-1" d="M174.76,297.71l-4.32,0v3l4,0v1.44l-4,0v3.15h4.33v1.45l-6,0-.05-10.49,6,0Z" transform="translate(0 -2.76)"/><path class="cls-1" d="M184.21,298.89v.38a2.72,2.72,0,0,1-2,2.65l2.85,4.78h-1.89l-2.61-4.39a11.39,11.39,0,0,1-1.63,0v4.43h-1.7l-.05-10.6c1,0,2.13-.09,3-.09C183,296,184.2,297.14,184.21,298.89Zm-5.31-1.42,0,3.46c.63,0,.94.06,1.35.06,1.58,0,2.24-.67,2.24-1.73V299c0-1-.67-1.57-2.28-1.56C179.89,297.42,179.31,297.44,178.9,297.47Z" transform="translate(0 -2.76)"/><path class="cls-2" d="M125.72,215.17a4.47,4.47,0,0,1-.26-1.42,5.29,5.29,0,0,1,5.51-5h56.5v4.14L199,202.31l-11.57-10.55v4.14H131.05c-.23,0-.46,0-.69,0-5,0-9,5.68-9,10.22C121.33,209.12,123.09,213.73,125.72,215.17Z" transform="translate(0 -2.76)"/><path class="cls-3" d="M144.09,203.59l-.34.48a.34.34,0,0,1-.46.11l-1.29-.9,0,.95v.6a.35.35,0,0,1-.34.34h-.57a.36.36,0,0,1-.35-.34l0-.6,0-1-1.3.9a.33.33,0,0,1-.46-.09l-.31-.48a.35.35,0,0,1,.09-.49l1.49-.9-1.49-.9a.37.37,0,0,1-.11-.49c.13-.2.22-.32.34-.48a.34.34,0,0,1,.45-.08l1.3.91,0-1.13v-.46a.36.36,0,0,1,.35-.34h.57a.35.35,0,0,1,.34.34V200l0,1.13,1.29-.92a.36.36,0,0,1,.47.09l.31.48a.33.33,0,0,1-.09.49l-1.5.9,1.5.92A.34.34,0,0,1,144.09,203.59Z" transform="translate(0 -2.76)"/><path class="cls-3" d="M152.23,203.59l-.34.48a.33.33,0,0,1-.45.11l-1.3-.9,0,.95,0,.6a.36.36,0,0,1-.35.34h-.57a.36.36,0,0,1-.35-.34l0-.6,0-1-1.3.9a.33.33,0,0,1-.46-.09l-.31-.48a.35.35,0,0,1,.09-.49l1.49-.9-1.49-.9a.37.37,0,0,1-.11-.49c.13-.2.22-.32.34-.48a.34.34,0,0,1,.45-.08l1.3.91,0-1.13,0-.46a.36.36,0,0,1,.35-.34h.57a.36.36,0,0,1,.35.34V200l0,1.13,1.3-.92a.34.34,0,0,1,.46.09l.31.48a.33.33,0,0,1-.09.49l-1.49.9,1.49.92A.34.34,0,0,1,152.23,203.59Z" transform="translate(0 -2.76)"/><path class="cls-3" d="M171.28,200.81c.14-.2.21-.32.34-.48a.34.34,0,0,1,.45-.08l1.3.91,0-1.59a.35.35,0,0,1,.34-.34h.58a.35.35,0,0,1,.34.34l0,1.59,1.3-.92a.36.36,0,0,1,.47.09l.3.48a.33.33,0,0,1-.09.49l-1.49.9,1.49.92a.34.34,0,0,1,.11.47l-.34.48a.33.33,0,0,1-.45.11l-1.3-.9,0,1.55a.35.35,0,0,1-.34.34h-.58a.35.35,0,0,1-.34-.34l0-1.57-1.3.9a.34.34,0,0,1-.47-.09l-.31-.48a.36.36,0,0,1,.09-.49l1.5-.9-1.5-.9A.37.37,0,0,1,171.28,200.81Z" transform="translate(0 -2.76)"/><path class="cls-3" d="M163.14,200.81l.34-.48a.34.34,0,0,1,.45-.08l1.3.91,0-1.59a.35.35,0,0,1,.34-.34h.58a.35.35,0,0,1,.34.34l0,1.59,1.29-.92a.36.36,0,0,1,.47.09l.31.48a.33.33,0,0,1-.09.49l-1.5.9,1.5.92a.34.34,0,0,1,.11.47l-.35.48a.33.33,0,0,1-.45.11l-1.29-.9,0,1.55a.35.35,0,0,1-.34.34h-.58a.35.35,0,0,1-.34-.34l0-1.57-1.3.9a.34.34,0,0,1-.47-.09l-.3-.48a.35.35,0,0,1,.09-.49l1.49-.9-1.49-.9A.38.38,0,0,1,163.14,200.81Z" transform="translate(0 -2.76)"/><path class="cls-3" d="M159.58,200.24a.36.36,0,0,1,.47.09l.3.48a.33.33,0,0,1-.09.49l-1.49.9,1.49.92a.34.34,0,0,1,.11.47l-.34.48a.33.33,0,0,1-.45.11l-1.3-.9,0,1.55a.36.36,0,0,1-.35.34h-.57a.35.35,0,0,1-.34-.34l0-1.57-1.29.9a.34.34,0,0,1-.47-.09l-.31-.48a.35.35,0,0,1,.09-.49l1.5-.9-.46-.28-1-.62a.37.37,0,0,1-.11-.49,5,5,0,0,1,.35-.48.34.34,0,0,1,.45-.08l1.09.77.2.14v-.39l0-1.2a.35.35,0,0,1,.34-.34H158a.36.36,0,0,1,.35.34l0,1.59Z" transform="translate(0 -2.76)"/><path class="cls-2" d="M189.65,242.52a4.57,4.57,0,0,1,.25,1.43,5.28,5.28,0,0,1-5.51,5h-56.5v-4.14l-11.56,10.56,11.56,10.56V261.8H185c5,0,9-5.69,9-10.23C194,248.57,192.27,244,189.65,242.52Z" transform="translate(0 -2.76)"/><path class="cls-3" d="M171.28,254.11l.34-.49a.33.33,0,0,1,.45-.11l1.3.9,0-.95v-.6a.35.35,0,0,1,.34-.34h.58a.35.35,0,0,1,.34.34v.6l0,1,1.3-.9a.35.35,0,0,1,.47.09l.3.49a.33.33,0,0,1-.09.48l-1.49.9,1.49.9a.36.36,0,0,1,.11.49c-.13.21-.22.32-.34.49a.34.34,0,0,1-.45.07l-1.3-.9,0,1.12v.46a.35.35,0,0,1-.34.34h-.58a.35.35,0,0,1-.34-.34v-.46l0-1.12-1.3.92a.37.37,0,0,1-.47-.09l-.31-.49a.34.34,0,0,1,.09-.49l1.5-.9-1.5-.92A.32.32,0,0,1,171.28,254.11Z" transform="translate(0 -2.76)"/><path class="cls-3" d="M163.14,254.11l.34-.49a.33.33,0,0,1,.45-.11l1.29.9,0-.95v-.6a.35.35,0,0,1,.34-.34h.58a.35.35,0,0,1,.34.34v.6l0,1,1.3-.9a.35.35,0,0,1,.47.09l.3.49a.33.33,0,0,1-.09.48l-1.49.9,1.49.9a.36.36,0,0,1,.11.49c-.13.21-.22.32-.34.49a.34.34,0,0,1-.45.07l-1.3-.9,0,1.12v.46a.35.35,0,0,1-.34.34h-.58a.35.35,0,0,1-.34-.34v-.46l0-1.12-1.29.92a.37.37,0,0,1-.47-.09l-.31-.49a.34.34,0,0,1,.09-.49l1.5-.9-1.5-.92A.32.32,0,0,1,163.14,254.11Z" transform="translate(0 -2.76)"/><path class="cls-3" d="M144.09,256.88c-.15.2-.22.32-.34.49a.34.34,0,0,1-.45.07l-1.3-.9,0,1.58a.35.35,0,0,1-.34.34h-.57a.36.36,0,0,1-.35-.34l0-1.58-1.3.92a.36.36,0,0,1-.46-.09l-.31-.49a.34.34,0,0,1,.09-.49l1.49-.9-1.49-.92a.32.32,0,0,1-.11-.46l.34-.49a.33.33,0,0,1,.45-.11l1.3.9,0-1.55a.36.36,0,0,1,.35-.34h.57a.35.35,0,0,1,.34.34l0,1.57,1.3-.9a.34.34,0,0,1,.46.09l.31.49a.34.34,0,0,1-.09.48l-1.49.9,1.49.9A.38.38,0,0,1,144.09,256.88Z" transform="translate(0 -2.76)"/><path class="cls-3" d="M152.22,256.88c-.14.2-.21.32-.34.49a.34.34,0,0,1-.45.07l-1.29-.9,0,1.58a.35.35,0,0,1-.34.34h-.58a.35.35,0,0,1-.34-.34l0-1.58-1.3.92a.37.37,0,0,1-.47-.09l-.3-.49a.34.34,0,0,1,.09-.49l1.49-.9-1.49-.92a.32.32,0,0,1-.11-.46l.34-.49a.33.33,0,0,1,.45-.11l1.3.9,0-1.55a.35.35,0,0,1,.34-.34h.58a.35.35,0,0,1,.34.34l0,1.57,1.29-.9a.35.35,0,0,1,.47.09l.31.49a.35.35,0,0,1-.09.48l-1.5.9,1.5.9A.37.37,0,0,1,152.22,256.88Z" transform="translate(0 -2.76)"/><path class="cls-3" d="M155.79,257.46a.37.37,0,0,1-.47-.09l-.31-.49a.34.34,0,0,1,.09-.49l1.5-.9-1.5-.92a.32.32,0,0,1-.11-.46l.35-.49a.33.33,0,0,1,.45-.11l1.29.9,0-1.55a.35.35,0,0,1,.34-.34H158a.35.35,0,0,1,.34.34l0,1.57,1.3-.9a.35.35,0,0,1,.47.09l.3.49a.34.34,0,0,1-.09.48l-1.49.9.46.28,1,.62a.37.37,0,0,1,.11.49c-.13.21-.22.32-.34.49a.34.34,0,0,1-.45.07l-1.1-.76-.2-.14v.39l0,1.19a.35.35,0,0,1-.34.34h-.58a.35.35,0,0,1-.34-.34l0-1.58Z" transform="translate(0 -2.76)"/><path class="cls-2" d="M145.48,234.13l-2.26-2.31-.58,1.52a2,2,0,0,1-1.62.73,2.13,2.13,0,0,1-1.49-1,2.33,2.33,0,0,0-.19-.22l-.16-.18-3.1-4.76,2.29-4,20.61-.18c1.59-4.16,4.72-6.25,9.28-6.23a11,11,0,0,1,8.06,3.62,11.55,11.55,0,0,1,2.92,8.76,11.22,11.22,0,0,1-11.05,10.29h-.13a10.64,10.64,0,0,1-9.36-5.91h-2.38l-2.78-2.85-2.73,2.75-2.7-2.77-2.63,2.72" transform="translate(0 -2.76)"/><path class="cls-4" d="M172.17,231.48h0a2.58,2.58,0,0,1-1.88-.81,2.75,2.75,0,0,1,0-3.83h0a2.61,2.61,0,0,1,1.87-.79h0a2.64,2.64,0,0,1,1.88.81,2.77,2.77,0,0,1,0,3.84A2.63,2.63,0,0,1,172.17,231.48Z" transform="translate(0 -2.76)"/><line class="cls-4" x1="140.09" y1="224.91" x2="158.4" y2="224.91"/><path class="cls-1" d="M41.4,271H39.58l-.69-2.34-3.87,0L34.37,271H32.61l3.31-10.5H38Zm-6-3.71h3.12l-1.58-5.34Z" transform="translate(0 -2.76)"/><path class="cls-1" d="M50,263.23v.36c0,2-1.23,3.19-3.84,3.21a11,11,0,0,1-1.48-.11l0,4.24H43l0-10.58c.87-.05,1.84-.09,3-.11C48.78,260.22,50,261.35,50,263.23Zm-5.34-1.55v3.62a9.29,9.29,0,0,0,1.38.1c1.5,0,2.25-.63,2.24-1.86v-.26c0-1.07-.69-1.66-2.34-1.65C45.35,261.63,45,261.65,44.7,261.68Z" transform="translate(0 -2.76)"/><path class="cls-1" d="M59,263.19v.36c0,2-1.23,3.19-3.84,3.21a11,11,0,0,1-1.48-.11l0,4.24H52l0-10.58c.87-.05,1.84-.09,3-.11C57.74,260.18,59,261.31,59,263.19Zm-5.34-1.55v3.62a9.29,9.29,0,0,0,1.38.1c1.5,0,2.25-.63,2.24-1.86v-.26c0-1.07-.69-1.66-2.34-1.65C54.31,261.59,54,261.61,53.66,261.64Z" transform="translate(0 -2.76)"/><path class="cls-1" d="M278,271h-3.15l0,9h-1.7l0-9h-3.17V269.6l8,0Z" transform="translate(0 -2.76)"/><path class="cls-1" d="M286.65,280h-1.82l-.69-2.33-3.87,0-.65,2.33h-1.76l3.31-10.5h2.06Zm-6-3.7h3.12L282.18,271Z" transform="translate(0 -2.76)"/><path class="cls-1" d="M295.25,272.17v.38a2.72,2.72,0,0,1-2,2.65l2.85,4.77h-1.89l-2.61-4.39a13.25,13.25,0,0,1-1.64,0l0,4.43h-1.7l-.05-10.6c1,0,2.13-.09,3-.09C294.08,269.3,295.25,270.42,295.25,272.17Zm-5.3-1.42,0,3.46c.63,0,.93.05,1.34.05,1.59,0,2.25-.66,2.24-1.72v-.29c0-1-.67-1.56-2.29-1.56C290.94,270.7,290.36,270.71,290,270.75Z" transform="translate(0 -2.76)"/><path class="cls-1" d="M304.17,269.6l0,1.42a18.92,18.92,0,0,0-3-.34c-1.47,0-2,.52-2,1.77l0,4.48c0,1.27.56,1.79,2,1.79a14.67,14.67,0,0,0,1.86-.2l0-3.24h-2v-1.47l3.62,0,0,5.72a13.2,13.2,0,0,1-3.52.62c-2.71,0-3.67-1.09-3.68-3.26l0-4.31c0-2.27,1-3.28,3.67-3.3A18,18,0,0,1,304.17,269.6Z" transform="translate(0 -2.76)"/><path class="cls-1" d="M313.22,270.87l-4.33,0,0,3,4,0v1.44h-4l0,3.16,4.32,0v1.46l-6,0,0-10.48,6,0Z" transform="translate(0 -2.76)"/><path class="cls-1" d="M323,270.82l-3.15,0,0,9h-1.7l0-9H315V269.4l8,0Z" transform="translate(0 -2.76)"/><path class="cls-1" d="M275,287.41l0,1.44a16.26,16.26,0,0,0-2.44-.26c-1.22,0-1.68.47-1.68,1.34v.38c0,.69.23.94,1.25,1.24l1.55.48a2.53,2.53,0,0,1,2.15,2.79v.3c0,1.88-1,2.91-3.8,2.92a13.67,13.67,0,0,1-2.54-.33l0-1.45a13.14,13.14,0,0,0,2.47.32c1.62,0,2.15-.49,2.14-1.35v-.48c0-.68-.27-1-1.06-1.23l-1.72-.52c-1.61-.49-2.15-1.16-2.16-2.76v-.18c0-1.85,1-2.88,3.36-2.89A16.45,16.45,0,0,1,275,287.41Z" transform="translate(0 -2.76)"/><path class="cls-1" d="M283.84,288.77l-4.33,0,0,3,4,0v1.44l-4,0,0,3.16,4.32,0v1.45l-6,0-.05-10.48,6,0Z" transform="translate(0 -2.76)"/><path class="cls-1" d="M293.28,289.94v.38a2.7,2.7,0,0,1-2,2.65l2.85,4.78h-1.89l-2.61-4.39a11.65,11.65,0,0,1-1.63,0l0,4.43h-1.71l0-10.59c1,0,2.13-.09,3-.1C292.11,287.08,293.27,288.2,293.28,289.94Zm-5.3-1.42V292c.63,0,.94.06,1.35.06,1.58,0,2.24-.67,2.24-1.72V290c0-1-.67-1.57-2.29-1.56C289,288.47,288.39,288.49,288,288.52Z" transform="translate(0 -2.76)"/><path class="cls-1" d="M300,297.72H297.9l-3.27-10.47h1.81l2.52,9,2.55-9h1.81Z" transform="translate(0 -2.76)"/><path class="cls-1" d="M306.72,297.69H305l0-10.49h1.71Z" transform="translate(0 -2.76)"/><path class="cls-1" d="M315.33,287.25l0,1.41a15.13,15.13,0,0,0-2.32-.25c-1.51,0-2.07.52-2.07,1.87l0,4.29c0,1.34.57,1.84,2.09,1.83a14.75,14.75,0,0,0,2.31-.28l0,1.45a17.39,17.39,0,0,1-2.45.29c-2.72,0-3.68-1.09-3.69-3.27l0-4.3c0-2.21,1-3.29,3.66-3.3A14.72,14.72,0,0,1,315.33,287.25Z" transform="translate(0 -2.76)"/><path class="cls-1" d="M323.64,288.59l-4.32,0v3h4V293l-4,0v3.15l4.33,0v1.46l-6,0-.05-10.48,6,0Z" transform="translate(0 -2.76)"/><rect class="cls-2" x="16.67" y="202.5" width="58.89" height="44.75" rx="2.75"/><line class="cls-2" x1="17.48" y1="210.99" x2="75.08" y2="210.99"/><circle class="cls-2" cx="70.19" cy="206.37" r="0.65"/><circle class="cls-2" cx="65.57" cy="206.37" r="0.65"/><circle class="cls-2" cx="60.95" cy="206.37" r="0.65"/><line class="cls-2" x1="22.85" y1="222.68" x2="69.39" y2="222.68"/><rect class="cls-2" x="22.85" y="216.93" width="46.55" height="24.38"/><rect class="cls-2" x="303.99" y="236.24" width="14.83" height="11.54" rx="1.71"/><path class="cls-2" d="M305.64,239v-2a6,6,0,0,1,5.77-6.21h0a6,6,0,0,1,5.77,6.21v2" transform="translate(0 -2.76)"/><circle class="cls-2" cx="311.41" cy="241.19" r="0.82"/><line class="cls-2" x1="311.41" y1="242.01" x2="311.41" y2="244.48"/><ellipse class="cls-2" cx="296.27" cy="202.17" rx="25.95" ry="8.65"/><path class="cls-2" d="M299.58,228.64c-1.08.05-2.18.07-3.31.07-14.33,0-25.94-3.87-25.94-8.65" transform="translate(0 -2.76)"/><path class="cls-2" d="M294.25,243.82c-13.39-.34-23.92-4.07-23.92-8.62" transform="translate(0 -2.76)"/><path class="cls-2" d="M306.16,258.3a82.61,82.61,0,0,1-9.89.68c-14.33,0-25.94-3.87-25.94-8.65" transform="translate(0 -2.76)"/><line class="cls-2" x1="270.33" y1="247.57" x2="270.33" y2="202.17"/><line class="cls-2" x1="322.22" y1="225.14" x2="322.22" y2="202.17"/><circle class="cls-2" cx="311.41" cy="238.93" r="17.3"/><line class="cls-5" x1="251.31" y1="224.87" x2="228.05" y2="224.87"/><polygon class="cls-3" points="259.3 224.83 251.17 231.44 251.12 218.3 259.3 224.83"/><path class="cls-1" d="M141.62,13.41h-2.15L136.21,3H138l2.53,9,2.55-9h1.8Z" transform="translate(0 -2.76)"/><path class="cls-1" d="M153.59,13.35h-1.82L151.08,11h-3.87l-.65,2.34h-1.75l3.3-10.5h2.06Zm-6-3.7h3.12L149.12,4.3Z" transform="translate(0 -2.76)"/><path class="cls-1" d="M162.18,10c0,2.26-1.19,3.54-3.68,3.55s-3.68-1.2-3.69-3.48l0-7.18h1.71l0,7.33a1.76,1.76,0,0,0,2,1.91,1.78,1.78,0,0,0,2-1.93l0-7.33h1.71Z" transform="translate(0 -2.76)"/><path class="cls-1" d="M166.5,11.86l4.32,0v1.44l-6,0,0-10.48h1.7Z" transform="translate(0 -2.76)"/><path class="cls-1" d="M178.49,4.21l-3.15,0,0,9h-1.7l0-9h-3.17V2.79l8,0Z" transform="translate(0 -2.76)"/><path class="cls-2" d="M140.65,130.86l-3.15-3.22-.82,2.11a2.77,2.77,0,0,1-2.26,1,2.91,2.91,0,0,1-2.08-1.37,3.15,3.15,0,0,0-.27-.31l-.22-.26-4.33-6.63,3.2-5.6,28.78-.25c2.21-5.81,6.58-8.73,12.95-8.69a15.33,15.33,0,0,1,11.25,5,16.07,16.07,0,0,1,4.08,12.23,15.69,15.69,0,0,1-15.42,14.37h-.19a14.84,14.84,0,0,1-13.06-8.25h-3.34l-3.88-4-3.8,3.83-3.78-3.87-3.66,3.8" transform="translate(0 -2.76)"/><path class="cls-6" d="M177.91,127.16h0a3.64,3.64,0,0,1-2.62-1.13,3.85,3.85,0,0,1,0-5.35h0a3.65,3.65,0,0,1,2.61-1.1h0a3.69,3.69,0,0,1,2.63,1.13,3.85,3.85,0,0,1,0,5.35A3.63,3.63,0,0,1,177.91,127.16Z" transform="translate(0 -2.76)"/><line class="cls-6" x1="133.12" y1="119.08" x2="158.68" y2="119.08"/><rect class="cls-2" x="129.98" y="20.67" width="58.89" height="53.48" rx="4.36"/><rect class="cls-2" x="135.76" y="26.45" width="47.33" height="41.91" rx="4.36"/><path class="cls-7" d="M153.53,57.7l.8-.8a8.45,8.45,0,0,0,10.19,0l.79.8A1.16,1.16,0,0,0,167,56.06l-.79-.8a8.45,8.45,0,0,0,0-10.19l.79-.79a1.16,1.16,0,0,0-1.64-1.64l-.79.79a8.45,8.45,0,0,0-10.19,0l-.8-.79a1.16,1.16,0,1,0-1.64,1.64l.8.79a8.45,8.45,0,0,0,0,10.19l-.8.8a1.16,1.16,0,1,0,1.64,1.64Zm11.25-3.82-3-3a2.39,2.39,0,0,0,0-1.35l3-3A6.52,6.52,0,0,1,164.78,53.88Zm-1.64-9.07-3,3a2.39,2.39,0,0,0-1.35,0l-3-3A6.52,6.52,0,0,1,163.14,44.81Zm-9.07,1.64,3,3a2.39,2.39,0,0,0,0,1.35l-3,3A6.52,6.52,0,0,1,154.07,46.45Zm4.68,6a2.39,2.39,0,0,0,1.35,0l3,3a6.52,6.52,0,0,1-7.43,0Z" transform="translate(0 -2.76)"/><path class="cls-2" d="M127.73,30.82H130a0,0,0,0,1,0,0v10a0,0,0,0,1,0,0h-2.25a1.23,1.23,0,0,1-1.23-1.23V32A1.23,1.23,0,0,1,127.73,30.82Z"/><path class="cls-2" d="M127.73,54H130a0,0,0,0,1,0,0V64a0,0,0,0,1,0,0h-2.25a1.23,1.23,0,0,1-1.23-1.23V55.26A1.23,1.23,0,0,1,127.73,54Z"/><line class="cls-5" x1="157.68" y1="157.15" x2="157.68" y2="141.34"/><polygon class="cls-3" points="157.72 165.13 151.11 157.01 164.25 156.95 157.72 165.13"/><line class="cls-5" x1="157.68" y1="101.1" x2="157.68" y2="81.8"/><rect class="cls-5" x="1" y="172.92" width="214.82" height="143.66" rx="6.11"/></g></g></svg>