<?xml version="1.0" encoding="utf-8"?>
<!-- Generator: Adobe Illustrator 21.1.0, SVG Export Plug-In . SVG Version: 6.00 Build 0)  -->
<svg version="1.1"
	 id="svg5383" inkscape:version="0.92.2 5c3e80d, 2017-08-06" sodipodi:docname="logo-icon.svg" xmlns:cc="http://creativecommons.org/ns#" xmlns:dc="http://purl.org/dc/elements/1.1/" xmlns:inkscape="http://www.inkscape.org/namespaces/inkscape" xmlns:rdf="http://www.w3.org/1999/02/22-rdf-syntax-ns#" xmlns:sodipodi="http://sodipodi.sourceforge.net/DTD/sodipodi-0.dtd" xmlns:svg="http://www.w3.org/2000/svg"
	 xmlns="http://www.w3.org/2000/svg" xmlns:xlink="http://www.w3.org/1999/xlink" x="0px" y="0px" viewBox="0 0 108.4 106.7"
	 style="enable-background:new 0 0 108.4 106.7;" xml:space="preserve">
<style type="text/css">
	.st0{fill:#FFFFFF;}
	.st1{fill:#0A090C;}
</style>
<sodipodi:namedview  bordercolor="#666666" borderopacity="1" gridtolerance="10" guidetolerance="10" id="namedview5385" inkscape:current-layer="svg5383" inkscape:cx="89.684243" inkscape:cy="-429.5" inkscape:pageopacity="0" inkscape:pageshadow="2" inkscape:window-height="773" inkscape:window-maximized="1" inkscape:window-width="1280" inkscape:window-x="0" inkscape:window-y="27" inkscape:zoom="0.37754386" objecttolerance="10" pagecolor="#ffffff" showgrid="false">
	</sodipodi:namedview>
<title  id="title4567">style-guide</title>
<g id="Layer_2_1_">
	<polygon class="st0" points="54.2,12.2 24.2,30.2 13.2,50 9.8,65.2 19.3,78.3 40.3,91.5 58.2,92.3 76.7,90 88.5,79.7 95.2,68.3 
		96,54.2 89.7,39.8 80.8,34 72.2,18.8 60.2,12.2 	"/>
</g>
<g id="Layer_2" transform="translate(-610.31576,-176.30139)">
	<path id="path5360" inkscape:connector-curvature="0" class="st1" d="M674.4,198.3c-0.7-0.1-1.4,0.3-1.7,1
		c-0.5,1.6,2.2,2.5,2.6,0.8C675.5,199.4,675.1,198.3,674.4,198.3z M678.8,208c0.5,0.1,0.9-0.2,1-0.7c0.1-0.2-0.2-1.1-0.5-0.9
		C678.4,205.9,677.7,207.7,678.8,208z M657.7,216.2c-0.3-0.5-0.6-1.1-0.9-1.6c-1.7-3.3-1.7-7.2,0-10.6c0.1-0.3,0.7-1.3,0-0.8
		c-0.3,0.3-0.7,0.6-0.9,0.9c-0.6,0.7-0.9,1.6-1.1,2.5c-0.4,1.9-0.3,3.9,0.3,5.7c0.3,1,0.7,1.9,1.2,2.8c0.3,0.5,0.6,0.9,1,1.3
		c0.1,0.2,0.9,1,1.1,0.9c0.1,0.1,0.2-0.1,0.2-0.1c-0.1-0.1-0.1-0.2-0.2-0.3C658.1,216.8,657.8,216.5,657.7,216.2L657.7,216.2z
		 M657.3,221.1c0-0.1-0.1-0.8-0.3-0.8c-0.3-0.1-0.9,0.8-1,1.1c-0.5,1-0.6,2.1-0.3,3.1c0.1,0.5,0.3,1,0.6,1.4
		c0.1,0.2,0.3,0.4,0.5,0.6c0.1,0.1,0.6,0.4,0.7,0c0.3-1.5,0.3-2.9,0.1-4.4C657.5,221.7,657.4,221.4,657.3,221.1L657.3,221.1z
		 M672,197.9c0.1-0.6-0.3-1.4-1-1.4s-1.5,0.3-1.7,1c-0.2,0.7,0.2,1.3,0.9,1.5c0.1,0,0.1,0,0.2,0C671.2,199.2,671.9,198.7,672,197.9
		L672,197.9z M671.5,200c-0.4,0-0.9,0.6-1,1c-0.1,0.4,0.1,0.8,0.5,1c0.1,0,0.2,0,0.3,0c0.6,0,1-0.4,1-1
		C672.3,200.6,671.9,200,671.5,200L671.5,200z M678,220.8c-0.1-0.1-0.5-0.4-0.6-0.4c-0.1,0-0.3,0.3-0.3,0.4
		c-0.2,0.6-0.3,1.2-0.2,1.8c0,0.8,0,1.6,0.2,2.4c0,0.2,0.5,2.1,1,1.5C679.2,225,679.7,222.1,678,220.8L678,220.8z M677.5,201.2
		c0.2-1-1.2-1.3-1.7-0.5C675.3,201.7,677.2,202.4,677.5,201.2z M718.4,235.9c-3.6-15.7-3.2-15.8-6.8-31.5c-1.2-5.3-6-9.2-10.9-11.5
		c-14.5-7-13.9-8.1-28.4-15.1c-4.9-2.4-11-1.6-15.9,0.8c-14.5,7-14.1,7.8-28.6,14.8c-4.9,2.4-9.2,5.9-10.4,11.3
		c-3.6,15.7-3,15.8-6.6,31.5c-1.2,5.2,0.1,10.7,3.5,14.9c10,12.6,10.4,12.3,20.4,24.9c3.4,4.3,7.9,7.2,13.4,7.2
		c16.1,0,16.1-0.9,32.2-0.9c5.5,0,10.7-1.4,14.1-5.7c10-12.6,9.9-12.7,20-25.3C717.6,246.9,719.6,241.2,718.4,235.9L718.4,235.9z
		 M701.1,230.2c-0.4,0.9-1.4,1.3-2.3,1c-0.1-0.1-0.3-0.1-0.4-0.2c-0.4-0.3-0.6-0.9-0.5-1.5c0.1-0.5,0.6-1,0.5-1.6
		c-0.2,0.1-1.1,0-0.9-0.4c-0.7,0-0.7,0.4-1.1,0.9c-0.3,0.3-0.7,0.5-1.1,0.7c-0.2,0.1-0.3,0.2-0.5,0.2c-0.2,0-0.3-0.1-0.4-0.3
		c-0.1,0.3-0.4,0.4-0.5,0.7c0.7,0.4-1,2.5-1.6,1.7c-0.1,0.2-0.3,0.3-0.5,0.4c-0.1,0.2-0.2,0.2-0.2,0.3c0,0.1,0.1,0.1,0.1,0.2
		c0,0.4-0.1,0.7-0.3,1.1c-0.3,0.5-1,1.4-1.7,1.2c0,0.4,0,0.8-0.1,1.1c-0.1,0.2-0.2,0.2-0.4,0.2h-0.5c-0.7-0.1-1.3-0.2-1.9-0.5
		c-0.7-0.2-1.3-0.5-1.8-0.9c-0.1-0.1-0.6-0.6-0.6-0.5s0.3,0.4,0.3,0.5c1.4,1,3,1.6,4.8,1.9c0.6,0,1.2,0.2,1.7,0.4
		c2.3,0.7,4.2,2.3,5.3,4.5c0.7,1.7,0.7,4.4-1.2,5.4c-0.9,0.4-2,0.3-2.9-0.2c-0.4-0.3-0.8-0.9-0.6-1.4c0.2-0.4,0.7-0.6,0.7-1
		c-0.7,0.2-1.2-0.9-1.4-1.4c-0.1-0.2-0.1-0.4-0.1-0.6c0-0.2,0.1-0.2,0.3-0.3c0.2-0.1,0.2-0.1,0-0.3c-0.1-0.1-0.3-0.2-0.4-0.3
		c-0.3-0.1-0.4-0.3-0.6,0.1s-0.1,0.2-0.3,0.3c-0.3,0.1-0.6,0.1-1,0c-0.4-0.1-0.7-0.2-0.9-0.5c-0.3-0.3-0.1-0.4,0-0.8
		c-0.2,0-0.5-0.3-0.7-0.2c0,0-0.1,0.2-0.2,0.3c-0.3,0.2-0.6,0.3-0.9,0.2c-0.5,0-0.9-0.1-1.3-0.4c-0.1-0.1-0.3-0.1-0.3-0.3
		c0-0.1,0.1-0.5,0.2-0.6c-0.3,0-0.5-0.2-0.8-0.2c-0.3,0-0.5,0.1-0.8,0.1c0.1,0.5,0,0.7-0.4,0.9c-0.3,0.1-0.7,0.1-1,0
		c-0.3,0-0.7-0.1-0.9-0.3c-0.1-0.1-0.2-0.2-0.2-0.4c0-0.1,0-0.2,0-0.3c-0.1-0.1-0.2-0.2-0.3-0.2c-0.2-0.1-0.4-0.2-0.6-0.3
		c-0.3-0.1-0.4-0.1-0.5-0.3c-0.2-0.5-0.5-0.9-0.8-1.4c-0.5-0.8-1.1-1.6-1.7-2.3c0.2,0.3,0.3,0.5,0.5,0.8l0.6,1
		c0.3,0.6,0.7,1.1,1,1.7c0.2,0.3,0.3,0.6,0.5,0.9c0.1,0.4,0.1,0.8,0,1.1c0,0.7-0.1,1.4-0.2,2.1c-0.2,1.3-0.2,2.7,0,4
		c0.2,1.1,0.5,2.1,1,3.1c0.6,1.4,2.6,4.7,4.3,2.9c0.6-0.8,1.5-1.2,2.4-1.1c0.9,0.2,1.7,0.8,2.1,1.6c0.4,0.8,0.4,1.8,0,2.7
		c-0.4,0.8-1.3,1.8-2.2,1.7c0,0.1,0,0.3,0,0.4c0,0.1-0.1,0.1-0.1,0.1c0,0,0,0,0,0c-0.1,0.1-0.3,0.3-0.4,0.3c-0.3,0.1-0.7,0.1-1,0
		c-0.2,0-0.3-0.1-0.4-0.2c-0.1-0.1-0.1-0.3-0.2-0.4s-0.6-0.2-0.8-0.2h-0.2c-0.1,0-0.2,0-0.2,0.1c-0.1,0.1-0.1,0.1-0.3,0.2
		c-0.4,0.2-0.8,0.2-1.2,0c-0.3-0.1-0.6-0.3-0.8-0.6c-0.2-0.3-0.3-0.6,0.1-0.7c-0.1-0.2-0.2-0.4-0.4-0.6c-0.3-0.2-0.3,0-0.5,0.1
		c-0.5,0.1-0.9,0-1.3-0.3c-0.4-0.2-0.7-0.5-1-0.9c-0.1-0.2-0.1-0.4-0.2-0.5c0-0.2,0.3-0.2,0.3-0.3c0-0.1-0.2-0.5-0.3-0.6
		s-0.1-0.1-0.3-0.1c-0.4,0.1-0.8-0.3-1-0.6c-0.2-0.3-0.4-0.7-0.4-1.1c-0.1-0.5,0.1-0.6,0.5-0.8c-0.2-0.3-0.6-0.9-0.9-0.9
		c-0.3,0-0.2,0.2-0.5,0c-0.1-0.1-0.2-0.2-0.3-0.4c-0.2-0.3-0.3-0.6-0.3-1c0-0.5,0.2-0.5,0.6-0.4c0-0.5-0.1-1-0.3-1.4
		c-0.3,0.1-0.3,0.2-0.6,0.1c-0.2,0-0.4-0.2-0.6-0.3c-0.3-0.3-0.5-0.8-0.6-1.2c0-0.1,0-0.5,0.1-0.6s0.4,0,0.4-0.2
		c0.2-0.5-0.4-1.1-0.6-1.4c-0.3,0.2-0.3,0.5-0.6,0.2c-0.1-0.2-0.2-0.4-0.3-0.7c-0.1-0.3-0.5-1.4,0-1.3c-0.1-0.6-0.3-1.1-0.5-1.6
		c-0.2-0.4-0.7-0.7-0.9-1.1c-0.1-0.2-0.8-2.9-1-2.9c0.2,0.7,0.4,1.5,0.5,2.2c0.1,0.8,0.1,1.5,0.1,2.3c0,0.9,0,1.7-0.2,2.6
		c-0.2,0.7-0.5,1.4-0.9,2.1c-0.3,0.7-0.6,1.4-0.8,2.1c-0.1,0.7,0,1.3,0.2,2c0.4,1.4,0.6,2.8,0.7,4.3c0,1.4-0.8,2.7-0.7,4.2
		c0,0.7,0.2,1.3,0.5,1.9c0.2,0.2,0.3,0.5,0.5,0.7c0.2,0.2,0.3,0.4,0.4,0.6c0.5,1,1.1,2.2,0.5,3.3c-0.5,1-1.6,1.5-2.7,1.2
		c-2.3-0.7-3.7-3.4-3.5-5.7l0,0c0.1-0.5,0.1-0.9,0.3-1.4c0.1-0.5,0.3-1,0.4-1.5c0.2-1,0.3-2,0.3-2.9c-0.1-0.8-0.2-1.6-0.5-2.3
		c-0.2-0.7-0.6-1.3-0.9-1.9c-0.6-1.4-0.9-2.9-0.9-4.4c0-0.4,0-0.8,0-1.2c0.1-0.4,0.2-0.7,0.3-1.1c0.1-0.8,0.2-1.5,0.3-2.3
		c0.1-0.8,0.2-1.5,0.5-2.3c0.2-0.7,0.5-1.3,0.9-1.9c-1,1.2-1.6,2.7-1.8,4.2c-0.1,0.7-0.2,1.5-0.3,2.3c0,0.3,0,0.4-0.2,0.6
		c-0.1,0.1-0.3,0.2-0.4,0.3c-0.3,0.3-0.6,0.5-0.9,0.9l-0.2,0.2c-0.1,0.1-0.2,0.1-0.1,0.3c-0.1,0.2-0.2,0.3-0.3,0.5
		c-0.2,0.3-0.5,0.5-0.8,0.6c-0.3,0.1-0.6,0.1-0.9,0c-0.1-0.1-0.1-0.3-0.2-0.4s-0.3,0-0.4,0.1l-0.2,0.1c-0.1,0-0.1,0.1-0.1,0.1
		c-0.1,0.1-0.1,0.2-0.2,0.4c-0.2,0.3-0.4,0.5-0.7,0.7c-0.5,0.3-1.3,0.8-1.7,0.2c-0.1,0.1-0.4,0.2-0.6,0.3c0.3,0.3,0.3,0.5,0,0.9
		c-0.3,0.3-0.6,0.6-1,0.9c-0.2,0.2-0.5,0.2-0.8,0.2c-0.2,0-0.2-0.2-0.4-0.3c-0.4-0.1-0.8,0.7-0.9,1c0.5,0.2,0.6,0.4,0.4,0.9
		c-0.1,0.4-0.4,0.8-0.7,1c-0.5,0.3-0.4,0.1-0.8-0.1s-0.3-0.1-0.4,0.2s-0.1,0.6-0.2,0.8c0.6,0,0.8,0.9,0.8,1.4c0,0.2,0,0.3-0.1,0.5
		c-0.1,0.1-0.2,0-0.2,0.2s0.3,0.5,0.4,0.7c0.5,0.4,0.9,0.7,1,1.3c0.1,0.7-0.1,1.5-0.7,2c-2,1.9-5.8,0.6-5.9-2.2
		c-0.1-1.4,0-2.8,0.3-4.2c0.2-0.7,0.4-1.3,0.7-2c0.3-0.7,0.6-1.4,1-2c0.3-0.6,0.7-1.2,1.1-1.8c0.2-0.3,0.4-0.5,0.7-0.7
		s0.4-0.6,0.6-0.8c0.9-1.2,1.9-2.2,3.2-3c0.6-0.4,1.3-0.7,2-1c0.3-0.2,0.7-0.3,1-0.5s0.5-0.2,0.8-0.3c0.5-0.4,1-0.8,1.3-1.4
		c0.2-0.3,0.5-0.6,0.8-0.9c0.1-0.1,0.5-0.5,0.6-0.6c-0.6,0.3-1,0.7-1.3,1.2c-0.4,0.5-1,1-1.6,1.3c-0.7,0.2-1.4,0.2-2.1,0
		c-0.3,0-0.7-0.1-1-0.1c-0.2,0-0.9,0.2-1.1,0.1c0.1,0.6-1.1,0.8-1.5,0.8c-0.4,0-0.7,0-1-0.2c-0.2-0.1-0.1-0.2-0.1-0.4
		c-0.1,0.1-0.8-0.1-1-0.1c-0.2,0.1-0.7,0.2-0.6,0.4s0.3,0,0.1,0.4c-0.1,0.2-0.2,0.5-0.4,0.7c-0.4,0.4-1,0.7-1.6,0.6
		c-0.1,0-0.2-0.1-0.3-0.1c-0.2-0.1-0.1-0.1-0.3-0.1c-0.4,0-0.7,0.3-1,0.4c0.8,1.1-1.9,2.6-2.2,1.6c-0.1,0.1-0.3,0.1-0.5,0.2
		s-0.3,0.2-0.4,0.3c0.2,0.3,0.2,0.5,0,0.9c-0.2,0.3-0.5,0.6-0.8,0.7c-0.3,0.1-0.6,0.1-0.9,0.1c-0.5,0-0.9,0.1-1.3,0.3
		c0.2,0.3-0.7,0.8-0.9,0.9s-1.1,0.4-1.3,0c-0.1-0.2,0.1-0.3-0.3-0.3c-0.3,0-0.6,0.1-0.9,0.2c-0.1,0-0.2,0.1-0.4,0.1
		c-0.1,0.1-0.1,0.2-0.2,0.3c-0.1,0.2-0.4,0.4-0.7,0.4c-0.5,0-1-0.2-1.4-0.5c-0.2-0.2-0.2-0.3-0.3-0.6s-0.1-0.4-0.3-0.4
		c0.1,0-0.3,0.2-0.3,0.2c-0.2,0-0.3,0-0.5-0.1c-0.2-0.1-0.5-0.3-0.7-0.4c-0.3-0.3-0.7-0.7-0.3-1c-0.5-0.5-1.3-0.8-1.8-1.3
		c-0.5-0.5-0.9-1.2-0.9-1.9c-0.3-1.2,0.4-2.4,1.6-2.7c0.1,0,0.2,0,0.4-0.1c0.5-0.1,1.1,0.1,1.5,0.4c0.5,0.4,0.7,1,0.8,1.6
		c0.2,1.1,0.2,2.6,1.6,2.7c2.7,0.2,4.7-1.7,6.5-3.4c1.1-1,2.2-1.9,3.5-2.6c1.4-0.6,2.8-1.3,4-2.1c0.5-0.3,1.2-0.5,1.8-0.5
		c0.7,0,1.4,0,2.1-0.1c0.7,0,1.5-0.2,2.2-0.5c0.2-0.1,1.6-1.1,1.3-1.2c0,0-0.6,0.5-0.7,0.6c-0.3,0.2-0.6,0.3-0.9,0.4
		c-0.6,0.2-1.2,0.4-1.8,0.4c-0.7,0.1-1.3,0.1-2,0.1c-0.3,0-0.7,0-1,0c-0.2,0-0.4,0.1-0.6,0.1L648,235l-0.2-0.1
		c-0.2,0-0.2,0.3-0.6,0.3c-0.3,0-0.5-0.2-0.7-0.4c-0.1-0.1-0.3-0.3-0.3-0.5c0-0.1,0-0.2,0.1-0.2c0-0.4-0.5-0.2-0.7-0.2
		c-0.5-0.1-0.9-0.5-1-1c0-0.2,0.1-0.2,0.1-0.4s0.1-0.1-0.1-0.3c-0.2-0.2-0.5-0.3-0.7-0.5c-0.3,0.7-1.4-0.2-1.7-0.5
		c-0.2-0.1-0.3-0.3-0.4-0.5c0-0.1,0-0.2,0-0.4s0-0.2,0.1-0.2c0-0.3-0.4-0.4-0.6-0.6c-0.1,0.2-0.6,0.3-0.8,0.3
		c-0.3,0-0.6-0.1-0.9-0.2c-0.4-0.2-0.8-0.7-0.6-1.1c-0.2-0.1-0.5-0.1-0.7-0.1c-0.2,0-0.3,0.2-0.5,0.3c0.6,0.7-0.7,1.6-1.4,1.5
		c-0.2,0-0.2-0.2-0.3-0.3s-0.1-0.2-0.2-0.1c-0.1,0.1-0.1,0.1-0.1,0.2c-0.2,0.3-0.3,0.6-0.3,0.9c0,1.4,1.2,2.7,0.7,4.2
		c-0.2,0.7-0.8,1.3-1.6,1.5c-0.5,0.1-1,0.1-1.5-0.1c-0.4-0.1-0.8-0.2-1.2-0.4c-1.7-1-2-3.3-1.4-5.1c0.2-0.4,0.3-0.7,0.5-1.1
		c0.2-0.4,0.5-0.8,0.8-1.2c0.6-0.7,1.3-1.4,2-2c0.4-0.4,0.8-0.7,1.3-1c0.3-0.2,0.6-0.4,0.9-0.7c0.6-0.4,1.3-0.5,2-0.5
		c1.7,0,3.4,0.5,4.9,1.4c1.6,1,3,2.1,4.4,3.4c0.6,0.6,1.4,1,2.2,1.4c0.4,0.2,0.9,0.3,1.3,0.4c0.4,0,0.9-0.1,1.3-0.2
		c1.7-0.5,3.2-1.4,4.3-2.7c-0.7-0.4-1.2-1-1.7-1.6c-1.1-1.4-1.3-3.2-0.7-4.9c0.2-0.5,0.4-1,0.6-1.4c0.1-0.2,0.3-0.4,0.4-0.6
		c0-0.1-0.2-0.4-0.2-0.6c-0.4-0.9-0.8-1.8-1.2-2.7c-1.5-3.6-2.4-7.6-1.2-11.4c1.1-3.4,3.3-6.3,6.2-8.3c3.1-2,6.9-2.8,10.5-2.1
		c1.9,0.2,3.7,0.6,5.4,1.5c1.4,0.9,2.7,2.1,3.6,3.5c1.1,1.5,1.9,3.2,2.3,4.9c0.4,1.9,0.7,3.8,0.6,5.7c0,1.9,0.1,4.1-0.7,5.9
		c-0.4,0.8-0.9,1.5-1.4,2.1c-0.2,0.2-0.6,0.8-0.6,1.1s0.7,0.6,0.9,0.8c1.1,1.3,1.5,3.1,1,4.7c-0.3,0.7-0.6,1.4-1.1,2.1
		c-0.2,0.4-0.5,0.7-0.7,1.1c-0.2,0.4-0.2,0.3-0.1,0.5c0.1,0.3,0.1,0.4,0.2,0.6c0.6,1.7,2.3,2.9,4.1,2.7c2-0.1,3.3-1.4,4.8-2.4
		c1.7-1.2,3.3-2.4,5-3.5s3.7-2.2,5.6-1.2C700.6,225.5,701.8,227.9,701.1,230.2L701.1,230.2z M677.4,212.2c0.8,0.4,1.7,0.1,2.2-0.7
		c0.4-0.9,0.1-2-0.7-2.6c-0.9-0.4-1.9-0.1-2.4,0.8c0,0,0,0.1,0,0.1C676,210.7,676.5,211.8,677.4,212.2L677.4,212.2z M679.1,204.3
		c0-0.8-0.5-1.5-1.3-1.7c-0.8-0.1-1.6,0.5-1.7,1.3C675.8,205.9,679,206.3,679.1,204.3L679.1,204.3z"/>
</g>
</svg>
